<svg width="28.800018" height="24.033691" viewBox="0 0 28.8 24.0337" fill="none" xmlns="http://www.w3.org/2000/svg" xmlns:xlink="http://www.w3.org/1999/xlink">
	<desc>
			Created with Pixso.
	</desc>
	<defs/>
	<path id="Vector" d="M13.2 13.57L6.21 23.33C5.85 23.83 5.25 24.09 4.64 24.02C3.94 23.93 2.99 23.67 2 22.96C1.02 22.25 0.47 21.43 0.16 20.8C0.03 20.53 -0.02 20.22 0 19.92C0.03 19.62 0.13 19.33 0.31 19.09L7.3 9.33C7.63 8.86 8.07 8.48 8.57 8.22L9.95 7.49C10.22 7.35 10.47 7.15 10.68 6.92C11.34 6.16 13.14 4.18 16.31 0.97L16.37 0.72C16.37 0.69 16.39 0.66 16.41 0.64C16.43 0.62 16.45 0.6 16.48 0.6L16.66 0.55C16.69 0.54 16.73 0.52 16.75 0.49C16.77 0.46 16.78 0.42 16.78 0.38L16.76 0.17C16.76 0.14 16.76 0.12 16.77 0.1C16.77 0.08 16.78 0.06 16.8 0.05C16.81 0.03 16.83 0.02 16.85 0.01C16.87 0 16.89 0 16.91 0C17.12 -0.01 17.53 0.05 18.11 0.47C18.69 0.88 18.88 1.25 18.94 1.46C18.95 1.48 18.95 1.5 18.95 1.52C18.95 1.54 18.94 1.56 18.93 1.58C18.92 1.6 18.9 1.61 18.89 1.63C18.87 1.64 18.85 1.65 18.83 1.65L18.62 1.71C18.58 1.71 18.55 1.74 18.53 1.77C18.5 1.8 18.49 1.84 18.5 1.87L18.51 2.05C18.51 2.08 18.51 2.11 18.49 2.14C18.48 2.17 18.46 2.19 18.44 2.2L18.21 2.34C16.2 6.38 14.9 8.72 14.39 9.59C14.24 9.86 14.13 10.16 14.08 10.47L13.84 12C13.75 12.57 13.53 13.11 13.2 13.57L13.2 13.57ZM28.48 19.09L21.49 9.33C21.16 8.86 20.72 8.48 20.22 8.22L18.84 7.49C18.57 7.34 18.32 7.15 18.11 6.92C17.88 6.65 17.65 6.39 17.41 6.13C17.4 6.12 17.38 6.11 17.37 6.1C17.35 6.1 17.34 6.1 17.32 6.1C17.3 6.1 17.29 6.11 17.27 6.12C17.26 6.13 17.25 6.14 17.24 6.15C16.57 7.45 15.87 8.74 15.15 10.02C15.04 10.2 14.97 10.4 14.94 10.6C14.87 11.04 14.87 11.49 14.94 11.93L14.95 12C15.04 12.57 15.26 13.1 15.6 13.57L22.58 23.33C22.94 23.82 23.53 24.09 24.14 24.02C25.1 23.89 26.01 23.53 26.79 22.96C27.57 22.4 28.21 21.66 28.63 20.8C28.76 20.53 28.81 20.22 28.79 19.92C28.76 19.62 28.66 19.33 28.48 19.09ZM9.96 1.65L10.17 1.7C10.21 1.71 10.24 1.73 10.26 1.77C10.29 1.8 10.3 1.83 10.29 1.87L10.28 2.05C10.28 2.08 10.28 2.11 10.3 2.14C10.31 2.16 10.33 2.18 10.36 2.2L10.58 2.33C10.95 3.08 11.3 3.77 11.62 4.4C11.65 4.46 11.73 4.47 11.78 4.42C12.3 3.86 12.93 3.19 13.68 2.42C13.71 2.39 13.72 2.35 13.73 2.31C13.73 2.26 13.71 2.22 13.68 2.19C13.3 1.81 12.91 1.4 12.48 0.97L12.42 0.71C12.42 0.69 12.4 0.66 12.38 0.64C12.36 0.62 12.34 0.6 12.31 0.6L12.13 0.55C12.1 0.54 12.06 0.52 12.04 0.49C12.02 0.46 12.01 0.42 12.01 0.38L12.03 0.17C12.03 0.14 12.03 0.12 12.02 0.1C12.02 0.08 12.01 0.06 11.99 0.05C11.98 0.03 11.96 0.02 11.94 0.01C11.92 0 11.9 0 11.88 0C11.67 -0.01 11.26 0.05 10.68 0.47C10.1 0.88 9.91 1.25 9.85 1.46C9.84 1.48 9.84 1.5 9.84 1.52C9.85 1.54 9.85 1.56 9.86 1.58C9.87 1.6 9.89 1.61 9.91 1.63C9.92 1.64 9.94 1.65 9.96 1.65L9.96 1.65Z" fill="#FFFFFF" fill-opacity="1.000000" fill-rule="nonzero"/>
</svg>
