<svg width="25.600006" height="25.600006" viewBox="0 0 25.6 25.6" fill="none" xmlns="http://www.w3.org/2000/svg" xmlns:xlink="http://www.w3.org/1999/xlink">
	<desc>
			Created with Pixso.
	</desc>
	<defs/>
	<path id="Vector" d="M12.8 0C16.27 0 16.71 0.01 18.07 0.07C19.43 0.14 20.36 0.35 21.18 0.67C22.02 0.99 22.74 1.43 23.45 2.14C24.1 2.78 24.6 3.56 24.92 4.41C25.24 5.23 25.45 6.16 25.52 7.52C25.58 8.88 25.6 9.32 25.6 12.8C25.6 16.27 25.58 16.71 25.52 18.07C25.45 19.43 25.24 20.36 24.92 21.18C24.6 22.03 24.1 22.81 23.45 23.45C22.81 24.1 22.03 24.6 21.18 24.92C20.36 25.24 19.43 25.45 18.07 25.52C16.71 25.58 16.27 25.6 12.8 25.6C9.32 25.6 8.88 25.58 7.52 25.52C6.16 25.45 5.23 25.24 4.41 24.92C3.56 24.6 2.78 24.1 2.14 23.45C1.49 22.81 0.99 22.03 0.67 21.18C0.35 20.36 0.14 19.43 0.07 18.07C0.01 16.71 0 16.27 0 12.8C0 9.32 0.01 8.88 0.07 7.52C0.14 6.15 0.35 5.23 0.67 4.41C0.99 3.56 1.49 2.78 2.14 2.14C2.78 1.49 3.56 0.99 4.41 0.67C5.23 0.35 6.15 0.14 7.52 0.07C8.88 0.01 9.32 0 12.8 0ZM12.8 6.39C11.1 6.39 9.47 7.07 8.27 8.27C7.07 9.47 6.39 11.1 6.39 12.8C6.39 14.49 7.07 16.12 8.27 17.32C9.47 18.52 11.1 19.2 12.8 19.2C14.49 19.2 16.12 18.52 17.32 17.32C18.52 16.12 19.2 14.49 19.2 12.8C19.2 11.1 18.52 9.47 17.32 8.27C16.12 7.07 14.49 6.39 12.8 6.39ZM21.12 6.07C21.12 5.65 20.95 5.24 20.65 4.94C20.35 4.64 19.94 4.48 19.52 4.48C19.09 4.48 18.68 4.64 18.38 4.94C18.08 5.24 17.92 5.65 17.92 6.07C17.92 6.5 18.08 6.91 18.38 7.21C18.68 7.51 19.09 7.67 19.52 7.67C19.94 7.67 20.35 7.51 20.65 7.21C20.95 6.91 21.12 6.5 21.12 6.07ZM12.8 8.95C13.81 8.95 14.79 9.36 15.51 10.08C16.23 10.8 16.64 11.78 16.64 12.8C16.64 13.81 16.23 14.79 15.51 15.51C14.79 16.23 13.81 16.64 12.8 16.64C11.78 16.64 10.8 16.23 10.08 15.51C9.36 14.79 8.95 13.81 8.95 12.8C8.95 11.78 9.36 10.8 10.08 10.08C10.8 9.36 11.78 8.95 12.8 8.95Z" fill="#FFFFFF" fill-opacity="1.000000" fill-rule="nonzero"/>
</svg>
