<svg width="60.000000" height="30.000000" viewBox="0 0 60 30" fill="none" xmlns="http://www.w3.org/2000/svg" xmlns:xlink="http://www.w3.org/1999/xlink">
	<desc>
			Created with Pixso.
	</desc>
	<defs/>
	<path id="visa-logo" d="M37.5391 9.76105C36.5962 9.76105 35.7881 10.2987 35.6534 11.2389C35.6534 13.252 41.9814 13.5197 41.9814 18.0859C41.9814 21.7118 38.886 24.1276 33.9048 23.9949C32.2886 23.9949 30.5399 23.7249 28.9237 23.0547L29.7318 19.2937C31.2111 19.9663 32.8273 20.369 34.4436 20.369C35.7881 20.369 37.135 19.8314 37.135 18.6235C37.2697 17.8182 36.5962 17.2806 34.8477 16.4754C33.2313 15.6678 30.9417 14.3272 30.9417 11.7742C30.9417 8.41821 34.1742 6.00012 38.6166 6.00012C39.9611 6.00012 41.4426 6.27008 42.7896 6.80771L41.9814 10.5663C40.6345 9.89606 39.0206 9.62607 37.5391 9.76105ZM11.1542 23.8599L16.0006 23.8599L23.269 6.40274L18.5574 6.40274L13.7133 18.2208L11.8276 8.14822C11.6929 7.2103 10.8848 6.40274 9.80725 6.40274L2 6.40274L2 6.94034C3.61621 7.2103 5.0979 7.74557 6.44238 8.41818C6.98108 8.68582 7.34741 9.25369 7.5199 9.89603L11.1542 23.8599ZM25.9629 23.8599L21.3857 23.8599L25.1547 6.40274L29.7318 6.40274L25.9629 23.8599ZM58 23.8599L54.3657 6.40274L50.4622 6.40274C49.6539 6.40274 48.8458 6.94034 48.5764 7.74557L41.8467 23.8599L46.5585 23.8599L47.499 21.3092L53.2882 21.3092L53.827 23.8599L58 23.8599ZM52.4801 17.6832L51.1355 11.1039L48.7112 17.6832L52.4801 17.6832Z" clip-rule="evenodd" fill="#FFFFFF" fill-opacity="1.000000" fill-rule="evenodd"/>
</svg>
