<svg width="36.000000" height="27.737732" viewBox="0 0 36 27.7377" fill="none" xmlns="http://www.w3.org/2000/svg" xmlns:xlink="http://www.w3.org/1999/xlink">
	<desc>
			Created with Pixso.
	</desc>
	<defs/>
	<path id="Vector" d="M34.85 9.04L26.51 9.03C25.19 6.15 23.74 3.33 22.16 0.58C21.84 0.02 21.09 -0.17 20.54 0.15C19.98 0.48 19.79 1.22 20.11 1.78C21.47 4.14 22.73 6.56 23.89 9.03L23.41 9.03L12.1 9.01C13.27 6.55 14.53 4.14 15.88 1.78C16.2 1.22 16.01 0.48 15.45 0.15C14.9 -0.17 14.15 0.02 13.83 0.58C12.26 3.32 10.81 6.13 9.49 9.01L5.32 9.01L1.14 9C-0.39 9 -0.39 11.37 1.14 11.37L2.46 11.37C2.46 11.41 2.47 11.45 2.48 11.5L6.77 24.9C6.98 25.54 7.18 26.17 7.38 26.81C7.42 26.91 7.46 27 7.51 27.09C7.68 27.44 8.02 27.7 8.53 27.7L25.1 27.73L27.46 27.73C28.07 27.73 28.43 27.36 28.56 26.91C28.61 26.82 28.66 26.72 28.69 26.62L33.13 12.97C33.3 12.45 33.47 11.93 33.64 11.41L34.85 11.41C36.38 11.41 36.38 9.04 34.85 9.04ZM24.12 11.4C23.94 12.4 23.76 13.4 23.59 14.41L22.08 14.41L19.19 14.4C19.19 13.76 19.19 13.11 19.2 12.46C19.2 12.11 19.2 11.75 19.2 11.39L24.12 11.4ZM28.42 19.8L25.04 19.79C25.21 18.79 25.39 17.79 25.57 16.78L27.49 16.78L29.4 16.79C29.07 17.79 28.74 18.8 28.42 19.8L28.42 19.8ZM22.64 19.79L21.38 19.79L19.19 19.79C19.19 18.78 19.19 17.78 19.19 16.78L23.17 16.78C22.99 17.78 22.81 18.79 22.64 19.79ZM21.66 25.35L19.18 25.35C19.18 24.28 19.18 23.22 19.19 22.16L22.22 22.16L21.91 23.96C21.82 24.43 21.74 24.89 21.66 25.35ZM14.33 25.34C14.14 24.28 13.95 23.21 13.77 22.15L14.61 22.15L16.81 22.15L16.81 24.35L16.81 25.34L14.33 25.34ZM6.66 16.76L10.42 16.77L10.95 19.77L10.13 19.77L7.62 19.77C7.3 18.77 6.98 17.76 6.66 16.76L6.66 16.76ZM12.82 16.77L13.91 16.77L16.82 16.77C16.82 17.78 16.82 18.78 16.82 19.78L13.35 19.78L12.82 16.77ZM16.82 11.39L16.82 14.4L12.41 14.4C12.26 13.58 12.12 12.76 11.97 11.94L11.88 11.38L12.58 11.38L16.82 11.39ZM9.48 11.38C9.65 12.39 9.83 13.39 10 14.39L8.5 14.39L5.9 14.39L5.38 12.77C5.23 12.31 5.08 11.84 4.93 11.38L9.48 11.38ZM9.4 25.33C9.06 24.27 8.72 23.21 8.38 22.14L11.37 22.15C11.51 22.96 11.66 23.78 11.8 24.59C11.84 24.84 11.89 25.09 11.93 25.34L10.89 25.34L9.4 25.33ZM24.06 25.36C24.25 24.29 24.43 23.23 24.62 22.17L25.86 22.17L27.65 22.17L27.04 24.04C26.89 24.48 26.75 24.92 26.61 25.36L24.06 25.36ZM30.17 14.42L25.98 14.41C26.09 13.8 26.2 13.18 26.31 12.57L26.51 11.4L30.67 11.4L31.15 11.4C30.82 12.41 30.49 13.41 30.17 14.42Z" fill="#FFFFFF" fill-opacity="1.000000" fill-rule="nonzero"/>
</svg>
