<svg width="56.000000" height="34.000000" viewBox="0 0 56 34" fill="none" xmlns="http://www.w3.org/2000/svg" xmlns:xlink="http://www.w3.org/1999/xlink">
	<desc>
			Created with Pixso.
	</desc>
	<defs/>
	<mask id="mask_7_191" fill="white">
		<path id="Left" d="M16.9836 0C7.60376 0 0 7.61115 0 17C0 26.3889 7.60376 34 16.9836 34C21.1873 34 25.0343 32.4713 28 29.9389C30.9657 32.4713 34.8127 34 39.0164 34C48.3962 34 56 26.3889 56 17C56 7.61115 48.3962 0 39.0164 0C34.8127 0 30.9657 1.52872 28 4.06107C25.0343 1.52872 21.1873 0 16.9836 0Z" clip-rule="evenodd" fill="" fill-opacity="1.000000" fill-rule="evenodd"/>
	</mask>
	<path id="Left" d="M16.9836 0C7.60376 0 0 7.61115 0 17C0 26.3889 7.60376 34 16.9836 34C21.1873 34 25.0343 32.4713 28 29.9389C30.9657 32.4713 34.8127 34 39.0164 34C48.3962 34 56 26.3889 56 17C56 7.61115 48.3962 0 39.0164 0C34.8127 0 30.9657 1.52872 28 4.06107C25.0343 1.52872 21.1873 0 16.9836 0Z" clip-rule="evenodd" fill="#ED0006" fill-opacity="1.000000" fill-rule="evenodd" mask="url(#mask_7_191)"/>
	<path id="Left" d="" fill="#979797" fill-opacity="0.000000" fill-rule="nonzero"/>
	<mask id="mask_7_194" fill="white">
		<path id="Right" d="M28 29.9389C30.9657 32.4713 34.8127 34 39.0164 34C48.3962 34 56 26.3889 56 17C56 7.61115 48.3962 0 39.0164 0C34.8127 0 30.9657 1.52872 28 4.06107C31.6517 7.17917 33.9672 11.8189 33.9672 17C33.9672 22.1811 31.6517 26.8208 28 29.9389Z" clip-rule="evenodd" fill="" fill-opacity="1.000000" fill-rule="evenodd"/>
	</mask>
	<path id="Right" d="M28 29.9389C30.9657 32.4713 34.8127 34 39.0164 34C48.3962 34 56 26.3889 56 17C56 7.61115 48.3962 0 39.0164 0C34.8127 0 30.9657 1.52872 28 4.06107C31.6517 7.17917 33.9672 11.8189 33.9672 17C33.9672 22.1811 31.6517 26.8208 28 29.9389Z" clip-rule="evenodd" fill="#F9A000" fill-opacity="1.000000" fill-rule="evenodd" mask="url(#mask_7_194)"/>
	<path id="Right" d="" fill="#979797" fill-opacity="0.000000" fill-rule="nonzero"/>
	<path id="Middle" d="M28 4.06116C31.6516 7.17926 33.9672 11.819 33.9672 17C33.9672 22.1811 31.6516 26.8208 28 29.9389C24.3483 26.8208 22.0328 22.1811 22.0328 17C22.0328 11.819 24.3483 7.17926 28 4.06116Z" clip-rule="evenodd" fill="#FF5E00" fill-opacity="1.000000" fill-rule="evenodd"/>
</svg>
